<?xml version="1.0" encoding="UTF-8"?><svg id="Ebene_2" xmlns="http://www.w3.org/2000/svg" xmlns:xlink="http://www.w3.org/1999/xlink" viewBox="0 0 436.87 78.41"><defs><style>.cls-1{fill:none;}.cls-2{fill:#0062c2;}.cls-3{fill:#fff;}.cls-4{fill:url(#radial-gradient);}.cls-5{fill-rule:evenodd;}</style><radialGradient id="radial-gradient" cx="-1108.7" cy="1776.92" fx="-1108.7" fy="1776.92" r="119.57" gradientTransform="translate(317.42 441.48) scale(.25 -.23)" gradientUnits="userSpaceOnUse"><stop offset="0" stop-color="#9bc4f0"/><stop offset=".59" stop-color="#0075d2"/><stop offset="1" stop-color="#014880"/></radialGradient></defs><g id="logo"><g><g><g><g><polygon class="cls-5" points="383.6 59.26 383.6 57.98 379.9 57.98 379.9 57.97 378.23 57.97 378.23 57.98 378.23 59.26 378.23 61.97 378.23 63.25 378.23 65.98 378.23 67.26 378.23 67.26 379.9 67.26 379.9 67.26 383.6 67.26 383.6 65.98 379.9 65.98 379.9 63.25 382.96 63.25 382.96 61.97 379.9 61.97 379.9 59.26 383.6 59.26"/><path d="m388.75,57.85l-4.19,9.4h1.59s2.48-5.88,2.57-6.08c.11.2,3.06,6.08,3.06,6.08h1.9l-4.93-9.4Z"/><path d="m377.16,57.98h-2.29c-.82.82-1.74,1.93-2.43,3.09-.69-1.16-1.61-2.27-2.43-3.09h-2.29c1.46,1.14,3.06,2.9,3.86,4.85v4.46h1.71v-4.45c.8-1.95,2.41-3.72,3.87-4.86Z"/><path d="m399.61,63.22c1.41-.71,1.8-1.81,1.8-2.57,0-2.81-3.02-2.66-3.02-2.66h-2.18s-1.71,0-1.71,0v9.28h1.71v-7.99h1.95c1.66,0,1.67,1.43,1.67,1.43,0,1.66-1.61,2-2.44,2.05,0,0,0,0,0,0h-.55c1.46,1.15,2.88,2.5,3.68,4.45h1.72c-.5-1.5-1.53-2.85-2.61-3.99Z"/><path d="m403.39,67.01l-.07-1.26s1.5.29,2.23.31,2.39-.06,2.58-1.12c.05-.24.22-1.21-1.87-1.71-.9-.22-4.08-1.01-3.11-3.76.25-.6,1.32-2.48,6.36-1.34l-.06,1.25s-1.68-.41-2.91-.22c-1.23.19-1.72.54-1.81,1.21-.1.67.56,1.23,1.76,1.56s3.58.88,3.44,3.1c-.07,1.15-1.42,3.19-6.53,1.99Z"/></g><g><path d="m403.89,18.84c-5.2,0-9.42,5.09-9.42,11.36s4.22,11.36,9.42,11.36,9.42-5.09,9.42-11.36-4.22-11.36-9.42-11.36Zm.02,19.52c-2.21,0-5.69-1.92-5.69-8.16s3.46-8.23,5.69-8.23,5.68,1.99,5.68,8.23-3.47,8.16-5.68,8.16Z"/><polygon points="367.47 18.96 364.25 22.04 367.47 22.04 367.47 41.67 371.31 41.67 371.31 18.96 367.47 18.96"/><path d="m381.31,27.38l.03-5.36h9.07v-3.07h-12.89s-.07,10.72-.07,10.72h1.24c5.93.02,8.84,2.1,8.84,4.87s-2.93,4.87-8.92,4.87h-1.79l-.22,2.31c.8.05,1.57.08,2.4.08,8.41,0,12.68-3,12.66-7.27-.02-3.79-3.49-6.66-10.36-7.17Z"/></g></g><path class="cls-2" d="m389.17,49.07c-8.57,0-30.27.36-30.27.36v.66s21.71.36,30.27.36c8.57,0,30.27-.36,30.27-.36v-.66s-21.71-.36-30.27-.36Z"/></g><g><rect class="cls-1" width="436.87" height="78.41"/><g><g><g><path class="cls-3" d="m66.85,44.93c-.04.07-.11.09-.18.08-.1,0-24.09-1.43-24.09-1.43,0,0-24,1.42-24.09,1.43-.07,0-.14-.02-.18-.08.08.27.18.54.27.81-.02-.13.06-.21.23-.21h47.54c.17,0,.26.07.23.21.1-.27.19-.53.27-.8Z"/><path class="cls-3" d="m67.52,38.96c-.88.06-17.14-.75-24.94-.74-7.79,0-24.05.8-24.94.74-.11,0-.19-.05-.21-.13,0,.12,0,.25,0,.37s0,.25,0,.37c.02-.07.1-.12.21-.13.89-.06,17.15.75,24.94.74,7.79.01,24.05-.8,24.94-.74.11,0,.19.05.21.13,0-.12,0-.25,0-.37s0-.25,0-.37c-.02.07-.1.12-.21.13Z"/><path class="cls-3" d="m67.28,41.95c-.73-.03-16.75-1.16-24.7-1.13-7.96-.03-23.97,1.1-24.7,1.13-.13,0-.23-.04-.27-.16.04.28.08.55.13.82,0-.11.1-.17.24-.17.19,0,19.34.53,24.6.53s24.42-.53,24.6-.53c.14,0,.24.05.24.17.05-.27.09-.54.13-.82-.04.12-.14.17-.27.16Z"/><path class="cls-3" d="m18.31,33.48c.04-.07.11-.09.18-.08.1,0,24.09,1.43,24.09,1.43,0,0,24-1.42,24.09-1.43.07,0,.14.02.18.08-.08-.27-.18-.54-.27-.8.02.13-.06.21-.23.21H18.81c-.17,0-.26-.07-.23-.21-.1.27-.19.53-.27.8Z"/><path class="cls-3" d="m17.87,36.46c.73.03,16.75,1.16,24.7,1.13,7.96.03,23.97-1.1,24.7-1.13.13,0,.23.04.27.16-.04-.27-.08-.55-.13-.82,0,.11-.1.17-.24.17-.19,0-19.35-.53-24.6-.53s-24.42.53-24.6.53c-.14,0-.24-.05-.24-.17-.05.27-.09.54-.13.82.04-.12.14-.17.27-.16Z"/></g><path class="cls-4" d="m18.81,32.89h47.54c.19,0,.28-.1.22-.27-3.22-8.8-12.74-15.2-23.99-15.2s-20.77,6.4-23.99,15.2c-.06.17.02.27.22.27Zm-1.17,6.08c.89.06,17.15-.75,24.94-.74,7.79,0,24.05.8,24.94.74.12,0,.22-.07.21-.16-.01-.67-.07-1.4-.16-2.12-.02-.17-.13-.23-.28-.22-.73.03-16.75,1.16-24.7,1.13-7.96.03-23.97-1.1-24.7-1.13-.15,0-.26.05-.28.22-.1.72-.15,1.46-.16,2.12,0,.09.09.15.21.16Zm.33-2.99c.19,0,19.34-.53,24.6-.53s24.42.53,24.6.53c.16,0,.26-.07.24-.22-.13-.72-.32-1.48-.55-2.22-.03-.1-.11-.13-.2-.13-.1,0-24.09,1.43-24.09,1.43,0,0-24-1.42-24.09-1.43-.08,0-.17.02-.2.13-.23.75-.42,1.5-.55,2.22-.03.15.08.22.24.22Zm.62,9.82c3.22,8.8,12.74,15.2,23.99,15.2s20.77-6.4,23.99-15.2c.06-.17-.02-.27-.22-.27H18.81c-.19,0-.28.1-.22.27Zm-1.17-6.18c.01.67.07,1.4.16,2.12.02.17.14.23.28.22.73-.03,16.75-1.16,24.7-1.13,7.96-.03,23.97,1.1,24.7,1.13.15,0,.26-.05.28-.22.1-.73.15-1.46.16-2.12,0-.09-.09-.15-.21-.16-.88-.06-17.14.75-24.94.74-7.79.01-24.05-.8-24.94-.74-.12,0-.22.07-.21.16Zm.31,3.05c.13.72.32,1.48.55,2.22.03.1.12.13.2.13.1,0,24.09-1.43,24.09-1.43,0,0,24,1.42,24.09,1.43.08,0,.17-.02.2-.13.23-.75.42-1.5.55-2.22.03-.15-.08-.22-.24-.22-.19,0-19.35.53-24.6.53s-24.42-.53-24.6-.53c-.16,0-.26.07-.24.22Z"/></g><g><path d="m112.64,27.79c-6.06,0-10.98,5.11-10.98,11.42s4.91,11.42,10.98,11.42,10.98-5.11,10.98-11.42-4.92-11.42-10.98-11.42Zm.02,19.5c-2.58,0-6.63-1.9-6.63-8.08s4.04-8.15,6.63-8.15,6.63,1.97,6.63,8.15-4.05,8.08-6.63,8.08Z"/><path d="m281.69,27.79c-6.06,0-10.98,5.11-10.98,11.42s4.92,11.42,10.98,11.42,10.98-5.11,10.98-11.42-4.92-11.42-10.98-11.42Zm.02,19.5c-2.58,0-6.64-1.9-6.64-8.08s4.04-8.15,6.64-8.15,6.63,1.97,6.63,8.15-4.05,8.08-6.63,8.08Z"/><rect x="80.81" y="28.32" width="4.14" height="21.78"/><rect x="151.62" y="28.32" width="4.14" height="21.78"/><path d="m173.7,31.31h1.73l.2-2.91c-.87-.09-1.52-.14-2.4-.14-8.42,0-13.85,4.47-13.85,10.94s5.43,10.94,13.85,10.94c.89,0,1.54-.05,2.4-.14l-.2-2.91h-1.73c-5.75,0-9.75-2.77-9.75-7.86,0-5.1,3.96-7.92,9.75-7.92Z"/><path d="m142.82,41.32s-.02.06-.04.03c-2.89-5.34-9.08-10.94-12.85-13.03h-2.87v21.78h3.9s-.16-16.79-.16-16.83c0-.05.02-.07.05-.06,4.71,3.24,9.62,9.5,12.31,16.88h3.46v-21.78h-3.95s.15,12.98.15,13Z"/><path d="m263.49,41.32s-.02.06-.04.03c-2.89-5.34-9.08-10.94-12.85-13.03h-2.87v21.78h3.9s-.16-16.79-.16-16.83c0-.05.02-.07.04-.06,4.71,3.24,9.62,9.5,12.31,16.88h3.46v-21.78h-3.95s.15,12.98.15,13Z"/><rect x="238.58" y="28.32" width="4.13" height="21.78"/><path d="m176.85,50.1h3.93s5.87-13.83,6.09-14.29c.27.47,7.24,14.29,7.24,14.29h4.66l-11.84-22.4-10.08,22.4Z"/><path d="m329.62,27.7l-10.07,22.4h3.93s5.87-13.83,6.09-14.29c.27.47,7.24,14.29,7.24,14.29h4.66l-11.84-22.4Z"/><path d="m92,37.17c2.3-2.38,8.52-8.85,8.52-8.85h-4.94l-9.06,9.54c4.35,2.86,7.99,6.76,10.24,12.25h4.33c-1.72-5.15-5.01-9.86-9.09-12.93Z"/><polygon points="300.26 28.32 296.11 28.32 296.11 50.1 308.72 50.1 308.72 46.98 300.26 46.98 300.26 28.32"/><polygon points="322.04 28.32 306.84 28.32 306.84 31.43 312.37 31.43 312.37 50.1 316.51 50.1 316.51 31.43 322.04 31.43 322.04 28.32"/><path d="m222.49,38.52c-.4.76-.95,2.49-1.33,3.51,0,.03-.05.03-.06,0-.37-1-.93-2.73-1.32-3.49-1.89-3.95-5.07-9.04-6.86-10.93-1.05,1.93-5.2,18.84-6.07,22.49h4.15s3.13-14.45,3.14-14.49c0-.05.03-.06.06-.02,1.36,2.09,4.02,7.66,5.62,12.58h2.63c1.47-4.6,4.25-10.4,5.62-12.5.02-.03.04-.01.05.02.01.04,3.15,14.41,3.15,14.41h4.15c-.87-3.64-5.02-20.56-6.07-22.49-1.83,1.89-4.93,6.99-6.84,10.91Z"/></g></g></g></g></g></svg>